<svg id="fd0f65fc-08b0-4c67-9b39-32189641c1dd" data-name="Layer 1" xmlns="http://www.w3.org/2000/svg" xmlns:xlink="http://www.w3.org/1999/xlink" viewBox="0 0 191.38 195.72"><defs><linearGradient id="a06e7fb3-231a-43cc-94f1-c513cc7e81df" y1="97.35" x2="191.38" y2="97.35" gradientUnits="userSpaceOnUse"><stop offset="0" stop-color="#fcedc6"/><stop offset="1" stop-color="#89765e"/></linearGradient><linearGradient id="a7a9bd07-978e-4dbe-a5a6-156b412a9095" x1="69.39" y1="21.27" x2="102.42" y2="16.64" gradientUnits="userSpaceOnUse"><stop offset="0" stop-color="#765412"/><stop offset=".27" stop-color="#b68622"/><stop offset=".73" stop-color="#e3c775"/><stop offset="1" stop-color="#ffec9a"/></linearGradient><linearGradient id="bd3b404b-a05c-4313-b2d0-c36d059fd012" x1="69.4" y1="21.32" x2="102.43" y2="16.7" xlink:href="#a7a9bd07-978e-4dbe-a5a6-156b412a9095"/><linearGradient id="eff16342-2a12-4ba6-9940-d1595aea7411" x1="70.01" y1="25.65" x2="103.03" y2="21.03" xlink:href="#a7a9bd07-978e-4dbe-a5a6-156b412a9095"/><linearGradient id="b288d910-2da0-49b1-8413-7ee137544a94" x1="5" y1="45.39" x2="80.3" y2="62.12" gradientUnits="userSpaceOnUse"><stop offset="0" stop-color="#575756"/><stop offset=".45" stop-color="#34322e"/><stop offset="1" stop-color="#0d0802"/></linearGradient><linearGradient id="fbecd8ad-3010-44a3-b672-fc152b8ae9ad" x1="-10.93" y1="156.47" x2="104.66" y2="122.34" xlink:href="#b288d910-2da0-49b1-8413-7ee137544a94"/><linearGradient id="e0ab11f5-d5d0-4b2c-8710-52acb6ef5bab" x1="16.35" y1="129.74" x2="22.3" y2="122.26" xlink:href="#a7a9bd07-978e-4dbe-a5a6-156b412a9095"/><linearGradient id="b1bd1b9e-9ea2-4565-90b9-ca83b48ccfec" x1="175.46" y1="130.09" x2="168.19" y2="121.28" xlink:href="#a7a9bd07-978e-4dbe-a5a6-156b412a9095"/><linearGradient id="fef591fa-3bfe-4511-a6f6-7091fd5233f7" x1="33.51" y1="136.13" x2="33.51" y2="111.24" xlink:href="#a06e7fb3-231a-43cc-94f1-c513cc7e81df"/><linearGradient id="b2a851e5-da61-4156-9217-e793611820bd" x1="50.61" y1="136.13" x2="50.61" y2="111.24" xlink:href="#a06e7fb3-231a-43cc-94f1-c513cc7e81df"/><linearGradient id="a7150809-fa21-4729-bb23-b7f34ea7ca2b" x1="67.83" y1="136.13" x2="67.83" y2="111.24" xlink:href="#a06e7fb3-231a-43cc-94f1-c513cc7e81df"/><linearGradient id="b2a80989-488e-4d84-a29a-78bea6a9adc6" x1="85.68" y1="136.13" x2="85.68" y2="111.24" xlink:href="#a06e7fb3-231a-43cc-94f1-c513cc7e81df"/><linearGradient id="bb47b7e0-6415-406c-b575-691f6b26920d" x1="104.25" y1="136.13" x2="104.25" y2="111.24" xlink:href="#a06e7fb3-231a-43cc-94f1-c513cc7e81df"/><linearGradient id="a0aed1a6-2d06-4028-b19b-4cfd2107d23a" x1="121.72" y1="136.13" x2="121.72" y2="111.24" xlink:href="#a06e7fb3-231a-43cc-94f1-c513cc7e81df"/><linearGradient id="bbc75c82-1586-4b6d-adae-2f4acc442226" x1="139.57" y1="136.13" x2="139.57" y2="111.24" xlink:href="#a06e7fb3-231a-43cc-94f1-c513cc7e81df"/><linearGradient id="eda87ccc-1dff-4da2-bce9-f0b816831d47" x1="157.86" y1="136.13" x2="157.86" y2="111.24" xlink:href="#a06e7fb3-231a-43cc-94f1-c513cc7e81df"/><linearGradient id="ede7437f-b923-4701-aef0-466410f673b6" x1="10.99" y1="134.01" x2="180.43" y2="134.01" xlink:href="#a06e7fb3-231a-43cc-94f1-c513cc7e81df"/><linearGradient id="ebb1c781-1d2d-4c90-b762-9897d98d6b4d" x1="8.39" y1="116.84" x2="183.03" y2="116.84" xlink:href="#a06e7fb3-231a-43cc-94f1-c513cc7e81df"/><linearGradient id="ba216b73-17ec-407f-ab64-bd2753d5acb0" x1=".81" y1="172.77" x2="113.99" y2="154.28" xlink:href="#b288d910-2da0-49b1-8413-7ee137544a94"/><style>.a74ed9da-01ad-404e-9f54-0635d5f721c7{fill:#0d0802}.b61257cb-36f4-4344-a282-a304bad0f3b0{fill:#89765e}.f13c309d-2107-4c76-b2de-206c6489ffa2{fill:#d3c8a9}.ee40de4b-a5a8-4622-be4c-4c989c0c324a{fill:#fff}.e571072d-fc36-4344-b968-f7db4a399aea{fill:#9d9fa2}</style></defs><path class="a74ed9da-01ad-404e-9f54-0635d5f721c7" d="M191.38 51.61v-1l-13.61 1 2.66-31.94v-1l-3-.79c-1-.62-23.23-13.57-65.7-16.33l-2.15-.14Q103.51 1.06 97 1h-4.32q-6.54.07-12.56.46l-2.21.15c-41.44 3-63.17 15.61-64.19 16.21l-3 .79v1l2.66 32-13.29-1v1l4.5 58.73-4.55-1v1L4.52 144l36.86 12.83c16.77 18.54 47.75 35.54 51.3 37.45l2.68 1.44 2.64-1.43c1.4-.75 33.91-18.25 51.31-37.49l37.21-12.8 4.48-33.66v-1l-4.16 1z"/><path d="M191.38 50.59h-13.61l2.66-31.94-3-1.81c-1-.62-23.23-13.57-65.7-16.33l-2.19-.14Q103.51 0 97 0h-4.32q-6.54.09-12.56.47l-2.21.15c-41.44 3-63.17 15.61-64.19 16.21l-3 1.81 2.66 32H.05l4.5 58.73H0L4.52 143l36.86 12.83c16.77 18.54 47.75 35.54 51.3 37.45l2.68 1.45 2.64-1.46c1.4-.75 33.91-18.25 51.31-37.49L186.52 143l4.48-33.68h-4.16z" fill="url(#a06e7fb3-231a-43cc-94f1-c513cc7e81df)"/><path class="b61257cb-36f4-4344-a282-a304bad0f3b0" d="M32.88 105.53h3.67a67.79 67.79 0 01-.92-11.4c0-14.57-6-68.29-6-68.29l-3.8-.84 6 68.84a65.67 65.67 0 001.05 11.69z"/><path class="f13c309d-2107-4c76-b2de-206c6489ffa2" d="M158.64 105.53a65.67 65.67 0 001.05-11.69l6-68.84-3.8.84s-6 53.72-6 68.29a67.79 67.79 0 01-.92 11.4z"/><path class="ee40de4b-a5a8-4622-be4c-4c989c0c324a" d="M98.07 153.09h-.5v2.57h2.28v-.48h-1.78v-2.09zM100.39 155.66h2.5v-.48h-1.98v-.55h1.98v-.48h-1.98v-.58h1.98v-.48h-2.5v2.57zM105.67 153.09h-.85l-1.41 2.57h.59l.23-.46H106l.24.46h.62l-1.15-2.09zm0 1.63h-1.21l.61-1.18zM116.55 153.57v-.48h-2.5v2.57h2.5v-.48h-1.97v-.55h1.97v-.48h-1.97v-.58h1.97zM108.39 154.65h.89v.53h-1.17a.44.44 0 01-.49-.45v-.68a.48.48 0 01.49-.48h1.16v-.48h-1.17a1.33 1.33 0 00-.49.12.89.89 0 00-.5.84v.73a.88.88 0 001 .88h1.68v-1.5h-1.4zM112.99 155.18v.48h.53v-.48h-.53zM112.45 155.17h.53v-2.09h-.53v2.09z"/><path class="ee40de4b-a5a8-4622-be4c-4c989c0c324a" d="M111 155a.71.71 0 01-.17-.55v-1.38h-.53v1.41a1.11 1.11 0 00.32.88 1.2 1.2 0 00.84.28h1v-.48h-.91a.63.63 0 01-.55-.16zM98.3 148.65h-4.42l-9.06 3.11 5.74-2.55v-1.11h-2.95l-3.69 2.95v1.02l-2.95 1.01v1.04l-5.17.8v.74h21.03v-3.32H92.4l-10.29 1.6 16.19-3.44v-1.85zM107 149.89V150.54v-.64zM108.83 149.67a.81.81 0 00-.25 0v1.7c.1 0 .26 0 .28-.06a.65.65 0 000-.31v-1-.22a.11.11 0 00-.03-.11z"/><path class="ee40de4b-a5a8-4622-be4c-4c989c0c324a" d="M99 148.65v3.69h17.51v-3.69zm3.21 3.06a1.19 1.19 0 01-.54.13 1.28 1.28 0 01-.55-.11.51.51 0 01-.28-.3 1.61 1.61 0 01-.07-.57v-.73a3.87 3.87 0 010-.42.66.66 0 01.43-.48 1.18 1.18 0 01.43-.07 1.3 1.3 0 01.56.11.56.56 0 01.28.29 1.4 1.4 0 01.07.53v.21h-.72v-.41a.63.63 0 000-.24s-.08-.05-.14-.05-.13 0-.14.06a.65.65 0 000 .25v1.18a1 1 0 000 .25.16.16 0 00.14.06c.06 0 .14 0 .15-.06a.75.75 0 000-.27v-.37h.72v.14a1.54 1.54 0 01-.07.57.61.61 0 01-.23.3zm1.55.08l-.08-.53h-.15l-.09-.49h.17c-.05-.29-.08-.58-.12-1-.06.45-.11.74-.13.95l-.07.56-.06.53h-.69l.38-2.59H104l.43 2.59zm2 0h-1.2v-2.59h.75v2.06h.45zm1.34 0h-1.2v-2.59h.75v2.06h.45zm.18-1.44a.72.72 0 010 .17.12.12 0 010 .09.16.16 0 01-.08.06h-.12a.25.25 0 01-.12 0h-.08a.16.16 0 010-.09.87.87 0 010-.18v-.23a.92.92 0 010-.19.08.08 0 010-.07.16.16 0 01.08-.06.28.28 0 01.13 0 .24.24 0 01.12 0h.08a.13.13 0 010 .08.5.5 0 010 .15zm.42-.42h-.14v.21h.13v.13h-.13v.41h-.21v-.9h.35zm1.9 1.08a1.61 1.61 0 010 .47.3.3 0 01-.13.18.4.4 0 01-.22.09 2.78 2.78 0 01-.4 0h-1v-2.55h.56a3.83 3.83 0 01.74.05.71.71 0 01.29.14.47.47 0 01.12.23 2.55 2.55 0 010 .49zm1.85-.08a3.52 3.52 0 010 .41.57.57 0 01-.13.24.63.63 0 01-.28.19 1.2 1.2 0 01-.4.06 1.31 1.31 0 01-.46-.07.65.65 0 01-.29-.2.48.48 0 01-.12-.26v-2.1h.72v1.94a.78.78 0 000 .21s.07.05.12.05a.19.19 0 00.13-.05 1.14 1.14 0 000-.25v-1.9h.71zm2.81-.06v.92h-.69v-.92l-.37-1.13h-.43v2H112v-2h-.44v-.54h2l.3.93.3-.93h.58zM117.3 148.73h-.14v.39h-.09v-.39h-.15v-.08h.38zM117.46 148.65v.18-.18h.12v.47h-.09v-.36l-.06.2v-.19.35h-.08v-.47zM78.33 142.64v.85a.58.58 0 01-.58.58H76.2v.78h-.7v-2.8h2.25a.58.58 0 01.58.59zm-.66.13a.06.06 0 00-.06-.06H76.2v.7h1.41a.06.06 0 00.06-.06zM83 142.72v1.46a.66.66 0 01-.66.67H80.6a.67.67 0 01-.67-.67v-1.46a.67.67 0 01.67-.67h1.7a.66.66 0 01.7.67zm-.66.13a.14.14 0 00-.13-.14h-1.48a.15.15 0 00-.14.14v1.2a.14.14 0 00.14.14h1.44a.13.13 0 00.13-.14zM87.49 142.05h.68l-.8 2.8h-.85l-.34-1.4-.34 1.4H85l-.81-2.8h.68l.56 1.85.46-1.85h.6l.46 1.85zM89.68 142.05h2.56v.62h-1.85v.45h1.54v.66h-1.54v.45h1.85v.62h-2.56zM96.75 142.64v.85a.58.58 0 01-.52.58l.52.78H96l-.52-.78h-.92v.78h-.7v-2.8h2.33a.58.58 0 01.56.59zm-.66.13a.06.06 0 00-.06-.06h-1.49v.7H96a.05.05 0 00.06-.06zM98.35 142.05h2.57v.62h-1.86v.45h1.55v.66h-1.55v.45h1.86v.62h-2.57zM105.47 142.7v1.5a.65.65 0 01-.65.65h-2.3v-2.8h2.3a.65.65 0 01.65.65zm-.66.15a.14.14 0 00-.14-.14h-1.49v1.48h1.49a.14.14 0 00.14-.14zM112.71 142.64v.48a.48.48 0 01-.14.33.5.5 0 01.14.33v.49a.58.58 0 01-.59.58h-2.36v-2.8h2.36a.58.58 0 01.59.59zm-.67.09a.06.06 0 00-.06-.06h-1.52v.49H112a.06.06 0 00.06-.06zm0 1.07s0-.05-.06-.05h-1.52v.48H112a.06.06 0 00.06-.06zM116.16 142.05h.76l-1 1.75v1h-.7v-1l-1.06-1.75h.77l.64 1.09z"/><path class="a74ed9da-01ad-404e-9f54-0635d5f721c7" d="M95.01 12.38l1.39 4.3 4.52-.6v.6l-3.66 2.67 1.4 3.71v.6l-3.65-2.65-3.65 2.65v-.59l1.39-3.72-3.65-2.67v-.6l4.51.6 1.4-4.3z"/><path fill="url(#a7a9bd07-978e-4dbe-a5a6-156b412a9095)" d="M95.01 11.79l1.39 4.29h4.52l-3.66 2.68 1.4 4.3-3.65-2.65-3.65 2.66 1.39-4.32-3.65-2.67h4.51l1.4-4.29z"/><path class="a74ed9da-01ad-404e-9f54-0635d5f721c7" d="M79.23 16.07l1.06 3.25 3.43-.59v.59l-2.78 2.04L82 24.03v.59l-2.77-2.01-2.77 2.02v-.6l1.06-2.67-2.77-2.04v-.59l3.42.59 1.06-3.25z"/><path fill="url(#bd3b404b-a05c-4313-b2d0-c36d059fd012)" d="M79.23 15.47l1.06 3.26h3.43l-2.78 2.03L82 24.03l-2.77-2.01-2.77 2.01 1.06-3.27-2.77-2.03h3.42l1.06-3.26z"/><path class="a74ed9da-01ad-404e-9f54-0635d5f721c7" d="M110.78 16.07l1.06 3.25 3.43-.59v.59l-2.77 2.04 1.05 2.67v.59l-2.77-2.01-2.77 2.02v-.6l1.06-2.67-2.77-2.04v-.59l3.42.59 1.06-3.25z"/><path fill="url(#eff16342-2a12-4ba6-9940-d1595aea7411)" d="M110.78 15.47l1.06 3.26h3.43l-2.77 2.03 1.05 3.27-2.77-2.01-2.77 2.01 1.06-3.27-2.77-2.03h3.42l1.06-3.26z"/><path d="M171.8 56.26l2.87-34.55s-26.86-16-78.87-16-79 16.05-79 16.05l2.87 34.55H6.36l4.28 55.84h170.53l4.28-55.84zM57 48.15l1 8.11H28.54L25.82 25s26.59-14.65 69.91-14.65S165.67 25 165.67 25L163 56.26h-29.1l1-8.11z" fill="url(#b288d910-2da0-49b1-8413-7ee137544a94)"/><path class="ee40de4b-a5a8-4622-be4c-4c989c0c324a" d="M58.94 89.75h2.46l-1-11.19h-.49zm23.65-14.29L82.1 75h-3v8.88h3l.49-.5zm-45.66 7h-.5L34.91 104h-9.65l-3.94-29.31v-6.17h7l1.53 21h.49l1.48-21h9.68l1.53 21h.49l1.53-21h7v6.17L48.1 104h-9.65zM62 97.12h-3.7l-.59 6.9h-7.38v-6l4.48-29.53h10.73L70 98.05v6h-7.37zM91.4 99v5h-6.89L80 90.21h-.84V104h-7.89V68.52h13.82s5.37-.34 5.37 5.83V82c0 3.4-1.37 4.88-3.29 5.72zm1-1.36v6.4h19.19v-7.35H101.3L111.63 75v-6.4H92.44V76h10.33zm78.17-29.05h-16.1v35.45h16.1v-7.35h-8.23v-6.84h6.51l.86-7.39h-7.37V76h8.23zM146 104.08h6.89V68.63H146v15.46h-.49l-4.91-15.46h-6.89v35.45h6.89V88.62h.49zm-13.77-29.55v23.64c0 3.74-1.67 5.12-3.84 5.91h-11.51c-2.17-.79-3.84-2.17-3.84-5.91V74.53c0-3.74 1.67-5.12 3.84-5.9h11.51c2.17.78 3.84 2.16 3.84 5.9zm-7.85 1l-.5-.5h-2.48l-.5.5V97.2l.5.49h2.48l.5-.49zm1.07-19h-2.78q-.58 2.46-.84 4.14a42 42 0 00-.73-4.14h-2.78l2.12 6.71V67h2.8v-3.84zm-9.35 2.09h1.8v-2.17h-6.64v2.09h1.8v8.37h3zm-9.36 6.19v-8.35h-3v6.18a22.64 22.64 0 00.06 2.36 2.15 2.15 0 00.46 1 2.76 2.76 0 001.19.81 5 5 0 001.84.31 4.72 4.72 0 001.63-.26 2.64 2.64 0 001.11-.77 2 2 0 00.51-1 10.33 10.33 0 00.09-1.66v-7h-3v8.27m-5.12 1a7.47 7.47 0 00.15-1.88v-3.68a12.17 12.17 0 00-.1-2 1.82 1.82 0 00-.5-.92 2.35 2.35 0 00-1.18-.59 15.88 15.88 0 00-3-.18H95.6v10.46h3.84a9.22 9.22 0 001.63-.11 2.42 2.42 0 00.91-.37 1.39 1.39 0 00.51-.75zm-2.91-2.1a3.13 3.13 0 01-.15 1.28q-.15.24-.81.24v-6.88a1.65 1.65 0 01.68.1.42.42 0 01.23.29 4.37 4.37 0 010 .91zm-5.38-3.94h.56v-.72h-1.37v3.6h.81V61h.5v-.69h-.5zm-1.11 2.15v-1.38-.78a.9.9 0 00-.16-.41.78.78 0 00-.34-.28 1.21 1.21 0 00-.48-.1 1.26 1.26 0 00-.49.1.85.85 0 00-.33.29 1 1 0 00-.15.41v2.16a.86.86 0 00.16.41.8.8 0 00.34.29 1.19 1.19 0 00.47.09 1.15 1.15 0 00.5-.1.83.83 0 00.33-.28 1.06 1.06 0 00.15-.42zm-.84-.29a1.6 1.6 0 010 .4.1.1 0 01-.11.08.11.11 0 01-.11-.07 2.54 2.54 0 010-.39v-1.68a.73.73 0 010-.33.1.1 0 01.1-.06.1.1 0 01.1.07 1.08 1.08 0 010 .32zM92 64.81h-1.82v-8.36h-3V66.9H92zM81.56 66.9h4.87v-2.09h-1.84v-8.36h-3zm-3.63 0H81l-1.7-10.47h-4.39L73.36 66.9h3.14l.18-1.9h1.09zm-.24-3.74h-1c.08-.92.28-2.39.59-4.4.1 1.75.25 3.24.41 4.4zM73 65.43a7.28 7.28 0 00.25-2.3v-.4h-3V64a3.47 3.47 0 01-.1 1.09.44.44 0 01-.44.23.45.45 0 01-.46-.23 3.22 3.22 0 01-.1-1V59.3a3.45 3.45 0 01.1-1 .47.47 0 01.45-.3.44.44 0 01.43.19 3.15 3.15 0 01.09 1V61h3v-1a6.33 6.33 0 00-.22-2.12 2.29 2.29 0 00-1.15-1.15 4.67 4.67 0 00-2.21-.47 4.72 4.72 0 00-1.75.3 2.87 2.87 0 00-1.19.82 2.24 2.24 0 00-.52 1.09 11.6 11.6 0 00-.09 1.69v3a6.94 6.94 0 00.29 2.3 2.18 2.18 0 001.14 1.2 5 5 0 002.2.43 4.21 4.21 0 002.16-.51A2.44 2.44 0 0073 65.43zm50.75.93a.62.62 0 10.63-.63.63.63 0 00-.62.63zm.12 0a.52.52 0 01.5-.53.51.51 0 01.5.53.5.5 0 01-.5.53.52.52 0 01-.49-.53zm.47-.35h-.19v.7h.11v-.31h.08a.14.14 0 01.15.13.82.82 0 000 .18h.12a.59.59 0 010-.18c0-.1-.06-.16-.12-.17a.19.19 0 00.14-.17.18.18 0 00-.07-.15.37.37 0 00-.21-.04zm0 .08c.12 0 .17.07.17.13s-.08.12-.17.12h-.08v-.24zm-17.61-1.36h.87"/><path fill="url(#fbecd8ad-3010-44a3-b672-fc152b8ae9ad)" d="M181.75 136.59H9.67l-3-22.33h178.08l-3 22.33z"/><path fill="url(#e0ab11f5-d5d0-4b2c-8710-52acb6ef5bab)" d="M19.53 122.98l.61 1.86h1.95L20.51 126l.6 1.86-1.58-1.14-1.58 1.15.6-1.87-1.58-1.16h1.96l.6-1.86z"/><path fill="url(#b1bd1b9e-9ea2-4565-90b9-ca83b48ccfec)" d="M171.89 122.98l.61 1.86h1.95l-1.58 1.16.61 1.86-1.59-1.14-1.58 1.15.61-1.87-1.58-1.16h1.95l.6-1.86z"/><path d="M37.8 125.86v1.92a1.7 1.7 0 01-1.69 1.7h-5.2a1.7 1.7 0 01-1.7-1.69V127h1.92v.4a.18.18 0 00.17.17h4.41a.18.18 0 00.17-.18v-.88a.18.18 0 00-.17-.17h-5.16a1.34 1.34 0 01-1.34-1.34v-1.93a1.7 1.7 0 011.7-1.7h5.19a1.7 1.7 0 011.7 1.7v.79h-1.92v-.4a.18.18 0 00-.17-.17H31.3a.18.18 0 00-.17.17v.9a.17.17 0 00.17.17h5.16a1.34 1.34 0 011.34 1.33z" fill="url(#fef591fa-3bfe-4511-a6f6-7091fd5233f7)"/><path d="M52.64 121.36h2v8.13h-2v-3.1h-4.06v3.1h-2v-8.13h2v3.1h4.06z" fill="url(#b2a851e5-da61-4156-9217-e793611820bd)"/><path d="M72.24 123.3v4.25a1.94 1.94 0 01-1.95 1.94h-4.92a1.94 1.94 0 01-2-1.94v-4.25a1.94 1.94 0 012-1.94h4.92a1.94 1.94 0 011.95 1.94zm-1.92.38a.4.4 0 00-.41-.4h-4.16a.4.4 0 00-.41.4v3.49a.4.4 0 00.41.4h4.16a.4.4 0 00.41-.4z" fill="url(#a7150809-fa21-4729-bb23-b7f34ea7ca2b)"/><path d="M89.5 121.36h2l-2.33 8.13h-2.5l-1-4.06-1 4.06h-2.46l-2.33-8.13h2l1.62 5.37 1.33-5.37h1.75l1.34 5.37z" fill="url(#b2a80989-488e-4d84-a29a-78bea6a9adc6)"/><path d="M108.55 123.24v4.37a1.89 1.89 0 01-1.89 1.88H100v-8.13h6.7a1.89 1.89 0 011.85 1.88zm-1.93.44a.4.4 0 00-.4-.4h-4.34v4.29h4.34a.4.4 0 00.4-.4z" fill="url(#bb47b7e0-6415-406c-b575-691f6b26920d)"/><path d="M126.12 123.3v4.25a1.94 1.94 0 01-1.94 1.94h-4.93a1.94 1.94 0 01-1.94-1.94v-4.25a1.94 1.94 0 011.94-1.94h4.93a1.94 1.94 0 011.94 1.94zm-1.92.38a.4.4 0 00-.4-.4h-4.17a.4.4 0 00-.4.4v3.49a.4.4 0 00.4.4h4.17a.4.4 0 00.4-.4z" fill="url(#a0aed1a6-2d06-4028-b19b-4cfd2107d23a)"/><path d="M143.39 121.36h2l-2.39 8.13h-2.48l-1-4.06-1 4.06h-2.42l-2.34-8.13h2l1.61 5.37 1.34-5.37h1.75l1.34 5.37z" fill="url(#bbc75c82-1586-4b6d-adae-2f4acc442226)"/><path d="M159.83 121.36h2v8.13h-2.43l-3.56-5.33v5.33h-2v-8.13h2.53l3.45 5.16z" fill="url(#eda87ccc-1dff-4da2-bce9-f0b816831d47)"/><path class="b61257cb-36f4-4344-a282-a304bad0f3b0" d="M8.39 115.76l2.19 1.32 1.98 15.86-1.57 2.15-2.6-19.33z"/><path class="f13c309d-2107-4c76-b2de-206c6489ffa2" d="M183.03 115.76l-2.19 1.32-1.98 15.86 1.57 2.15 2.6-19.33z"/><path fill="url(#ede7437f-b923-4701-aef0-466410f673b6)" d="M12.56 132.94h166.3l1.57 2.15H10.99l1.57-2.15z"/><path fill="url(#ebb1c781-1d2d-4c90-b762-9897d98d6b4d)" d="M10.68 117.91h170.06l2.29-2.15H8.39l2.29 2.15z"/><path class="b61257cb-36f4-4344-a282-a304bad0f3b0" d="M54.23 140h-4.61c6.28 7.5 12.24 14.13 16.11 17.15 7.78 6.07 23.15 14 29.81 18.14 0 .03-27.46-19.87-41.31-35.29z"/><path class="f13c309d-2107-4c76-b2de-206c6489ffa2" d="M136.85 140c-13.85 15.42-41.31 35.32-41.31 35.32 6.66-4.13 21.51-12.65 29.29-18.71A124.68 124.68 0 00141.45 140z"/><path d="M141.4 140c-2.46 2.45-13.06 13-16.55 15.72-7.78 6.07-22.63 15.43-29.29 19.56 0 0-22.16-13.67-29.3-19.53A222.23 222.23 0 0149.72 140H11.57l33.23 10.9c16.1 18.56 48.81 36.32 50.76 37.37 0 0 34.15-18.26 50.76-37.4L179.54 140z" fill="url(#ba216b73-17ec-407f-ab64-bd2753d5acb0)"/><path class="e571072d-fc36-4344-b968-f7db4a399aea" d="M175.2 102.37h-1.09v2.16h-.68v-2.16h-1.07V102h2.84zM176.42 102l.33 1 .38-1h.87v2.57h-.62v-1.96l-.46 1.12h-.34l-.41-1.07v1.91h-.63V102z"/><g opacity=".2"><path class="a74ed9da-01ad-404e-9f54-0635d5f721c7" d="M51.85 32.73c-1 .16-2 .34-3 .52l-.67.12v-.59l-1.39.85-3.15.62-.47.09-.17.46-2.3 6.74c-.83-1.83-1.65-3.65-2.48-5.47l-.28-.62-.67.15c-1 .24-3.09 0-4.14.28v.7l.44.93Q36 42.66 38.4 47.85l.28.61.66-.14c1.15-.26 2.3-.5 3.46-.74l.46-.1.16-.45q2.13-6.16 4.29-12.29l.44-1.26.27 13 1-.18c1-.17 2-.35 3-.51l.72-.12-.26-13.1zM76 36.26c1.89-1.78 3.8-3.56 5.7-5.3l1.72-1.58v-.7c-1.35.07-5 1-6.4 1.07h-.29l-.21.2c-1.24 1.13-2.48 2.26-3.72 3.41v-3.3l-.91.08-2.77.27-2.41.26q-2 .22-4.05.48h-.28l-.2.2L58.49 35l-.05-3.26-.95.13-3 .46-.73.12.24 13.07 1-.15 3-.45.73-.11-.07-3.71q2.08 1.45 4.16 2.94l.27.19h.32c1.33-.17 2.67-.32 4-.47l1-.11.71-.07 3-.29.77-.07v-3.68L77 42.65l.25.2h.32l4-.24 2.19-.12v-.7C81.75 40.15 78 37.85 76 36.26zm-14.3 1.48c1.87-1.89 3.77-3.78 5.66-5.63l.69-.68.13 11.11-.42-.32c-2-1.51-4.03-3.01-6.06-4.48z"/><path class="a74ed9da-01ad-404e-9f54-0635d5f721c7" d="M96.83 32.36a3.13 3.13 0 00-1-2.29 3.39 3.39 0 00-2.37-.93c-2.55 0-5.16.06-7.75.16a3.39 3.39 0 00-3.31 3.33v2.71a2.57 2.57 0 00.94 2l-.93.05v1.91a3.18 3.18 0 003.29 3.1h.14c2.53-.1 5.11-.16 7.66-.18A3.31 3.31 0 0096.83 39v-2.7a2.66 2.66 0 00-.83-1.94h-.06.9zm-4.53 1.17v.06c-1.79 0-3.59.06-5.36.11v-.06c1.78-.05 3.58-.09 5.36-.11zM87 37.92c1.77-.06 3.57-.1 5.35-.11-1.78 0-3.58.07-5.35.12zM111 34v-4.38h-.8c-4-.24-8.08-.38-12.12-.43h-.85v4.38h.83c1.23 0 2.47 0 3.7.07v8.72h.82l3 .1h.87v-8.73l3.64.19zM156.45 39.55a4 4 0 00-3-3.8c-2.5-.57-5.07-1.12-7.62-1.63a3.88 3.88 0 00-.67-.06 2.79 2.79 0 00-2.76 2.08l.15-.66.42-1.81V33c-.89-.16-2.55.24-3.53.07l-.91-.16-.14 1.95a3.84 3.84 0 00-3-2.56c-3.32-.52-6.69-1-10-1.37l-.92-.11-.17 12.3-.32-.47q-2.46-6-4.94-11.93l-.19-.47h-.51l-3.53-.29h-.57l-.25.52c-1.73 3.68-4 7.8-5.68 11.51v.7l1.23.07 3 .19h.55l.85-1.7c1.62.12 3.26.26 4.89.41l.8 1.83.49.05c1 .09 2 .2 3 .31l1.18.13.7.02c1 .11 2 .23 3 .36l.93.12v-3.17l2.58.36 2.15 3.49.39.06 3.3.53 1.8.3v-.7c-.59-1-2.1-2.75-2.47-3.36a2.83 2.83 0 001.75-2.6v-.63l.35.06.47.09a4.36 4.36 0 00.94.14h.12a1.66 1.66 0 001.53-1c.16-.55.29-1.11.42-1.68a3.54 3.54 0 000 .48l-.06 2.68a3 3 0 00.74 2l-.79-.15v2.1a3.84 3.84 0 003.1 3.69c2.5.49 5 1 7.53 1.6a4 4 0 00.76.08 2.69 2.69 0 002.78-2.69l.07-2.68a3.07 3.07 0 00-.67-2l.72.17zm-40.61-2.43c.18-.42.36-.84.55-1.26l.53 1.35zm18.16-.66v1.16c-1.65-.25-3.31-.48-4.95-.7v-1.17c1.61.25 3.28.46 4.95.71zm18 3.4c-1.74-.39-3.5-.76-5.25-1.12 1.71.35 3.47.73 5.25 1.12zM146.6 43c1.74.35 3.5.73 5.24 1.12-1.74-.37-3.5-.74-5.24-1.12z"/></g><path class="a74ed9da-01ad-404e-9f54-0635d5f721c7" d="M51.85 32l-3 .53-.67.12-1.43.27-3.15.62-.47.09-.13.47-2.3 6.74c-.83-1.83-1.65-3.65-2.48-5.47l-.28-.62-.67.15-3.13.73-1 .25.44.93 4.82 10.34.28.61.66-.14c1.15-.26 2.3-.5 3.46-.74l.46-.1.16-.45q2.13-6.16 4.29-12.3l.44-1.25.27 13 1-.18c1-.17 2-.35 3-.51l.72-.12-.26-13.11zM76 35.56c1.89-1.78 3.8-3.56 5.7-5.3l1.72-1.58-2.33.12-4.09.25h-.29l-.21.2c-1.24 1.13-2.48 2.26-3.72 3.41v-3.3l-.91.08-2.77.26-2.42.3-4.05.48h-.28l-.2.2-3.66 3.59-.05-3.27-.95.13-3 .46-.73.11.24 13.12 1-.15q1.5-.24 3-.45l.73-.11-.07-3.71q2.08 1.45 4.16 2.94l.27.19h.32c1.33-.17 2.67-.32 4-.47l1-.11.71-.07 3-.29.77-.07v-3.68L77 42l.25.2h.32c1.34-.09 2.68-.18 4-.25l2.19-.11-1.7-1.38c-2.01-1.69-4.06-3.31-6.06-4.9zM61.7 37c1.87-1.89 3.77-3.78 5.66-5.63l.69-.68.13 11.1-.42-.31c-2-1.48-4.03-2.97-6.06-4.48z"/><path class="a74ed9da-01ad-404e-9f54-0635d5f721c7" d="M96.83 31.66a3.13 3.13 0 00-1-2.29 3.4 3.4 0 00-2.37-.94c-2.55 0-5.16.07-7.75.17a3.39 3.39 0 00-3.31 3.33v2.71a2.57 2.57 0 00.94 2h-.93v1.91a3.18 3.18 0 003.29 3.15h.14c2.53-.1 5.11-.16 7.66-.18a3.31 3.31 0 003.33-3.24V35.6a2.65 2.65 0 00-.83-1.94h-.06.9zm-4.53 1.17v.06c-1.79 0-3.59 0-5.36.11v-.06c1.78-.06 3.58-.09 5.36-.11zM87 37.22c1.77-.06 3.57-.1 5.35-.11-1.78 0-3.58.06-5.35.12zM111 33.3v-4.38h-.8c-4-.24-8.08-.38-12.12-.43h-.85v4.37h.83l3.7.07v8.73h.82c1 0 2 .06 3 .1h.87v-8.73c1.22 0 2.43.12 3.64.19zM156.45 38.85a4 4 0 00-3-3.8c-2.5-.57-5.07-1.12-7.62-1.63a3.88 3.88 0 00-.67-.06 2.79 2.79 0 00-2.76 2.08l.15-.66.42-1.81-.87-.16-2.66-.47-.91-.16-.14 2a3.84 3.84 0 00-3-2.56c-3.32-.52-6.69-1-10-1.37l-.92-.11-.18 12.6-.31-.78q-2.46-6-4.94-11.93l-.19-.46-.51-.05-3.53-.29h-.57l-.25.52q-2.59 5.52-5.16 11.09l-.52 1.12 1.23.07 3 .19h.55l.85-1.7c1.62.12 3.26.26 4.89.41l.8 1.83h.49c1 .09 2 .2 3 .31l1.18.12.75.08 3 .37.93.12v-3.17l2.58.36 2.15 3.49.39.06 3.3.53 1.8.3-2.47-4.06a2.83 2.83 0 001.75-2.6v-.63l.35.06.47.09a4.36 4.36 0 00.94.14h.12a1.63 1.63 0 001.53-1c.16-.55.29-1.11.42-1.68a3.54 3.54 0 000 .48l-.06 2.67a3 3 0 00.74 2l-.79-.15v2.1a3.85 3.85 0 003.1 3.69c2.5.49 5 1 7.53 1.59a3.35 3.35 0 00.76.09 2.69 2.69 0 002.78-2.69l.07-2.68a3 3 0 00-.67-2l.72.17zm-40.61-2.43c.18-.42.36-.84.55-1.26l.53 1.35zm18.16-.66v1.16c-1.65-.25-3.31-.49-4.95-.7v-1.17c1.61.22 3.28.46 4.95.71zm18 3.4c-1.74-.39-3.5-.77-5.25-1.12 1.71.35 3.47.73 5.25 1.12zm-5.35 3.16c1.74.35 3.5.73 5.24 1.12-1.79-.44-3.55-.77-5.29-1.12z"/><path class="ee40de4b-a5a8-4622-be4c-4c989c0c324a" d="M43.77 33.91l3.15-.62q-2.16 6.14-4.29 12.3c-1.16.24-2.32.49-3.47.75q-2.4-5.21-4.83-10.34l3.13-.73q1.68 3.69 3.35 7.41c.98-2.93 1.97-5.86 2.96-8.77zM49.24 44.32L49 32.91l3-.52c.08 3.8.15 7.61.23 11.41zM60.42 36.68q3.42 2.48 6.83 5c-1.34.14-2.67.3-4 .46-1.84-1.31-3.67-2.6-5.51-3.87l.08 4.6-3 .46c-.07-3.81-.13-7.61-.2-11.41l3-.46.08 4.29c1.67-1.68 3.36-3.34 5.05-5 1.34-.17 2.69-.33 4-.47q-3.16 3.19-6.33 6.4zM74.7 35.16q3.42 2.67 6.82 5.43c-1.34.07-2.69.15-4 .24-1.86-1.42-3.7-2.83-5.52-4.18v4.61l-3 .28-.14-11.42 3-.28v4.28q2.55-2.37 5.1-4.69c1.35-.1 2.7-.18 4-.25q-3.06 2.96-6.26 5.98zM96 35.14v2.68a2.46 2.46 0 01-2.5 2.4q-3.84 0-7.68.18a2.37 2.37 0 01-2.53-2.28V37l2.85-.12v.55a.23.23 0 00.25.23q3.27-.12 6.52-.15a.25.25 0 00.25-.24V36a.24.24 0 00-.25-.23c-2.55 0-5.09.08-7.64.17a1.85 1.85 0 01-2-1.8v-2.68A2.55 2.55 0 0185.75 29c2.57-.09 5.15-.14 7.72-.16A2.45 2.45 0 0196 31.2v1.11h-2.85v-.55a.25.25 0 00-.25-.24q-3.27 0-6.54.14a.25.25 0 00-.25.25v1.26a.25.25 0 00.26.23q3.81-.13 7.64-.15A1.94 1.94 0 0196 35.14zM110.21 29.25v2.7c-1.5-.09-3-.16-4.52-.23v8.73l-3-.1v-8.73c-1.51-.05-3-.08-4.53-.1v-2.69c4 .04 8.03.17 12.05.42zM119.35 39.63q-3-.29-6-.5c-.29.57-.57 1.13-.85 1.7l-3-.19q2.56-5.56 5.16-11.09c1.17.09 2.35.19 3.52.3q2.48 5.94 4.93 11.92l-3-.31c-.22-.61-.49-1.22-.76-1.83zM118.19 37l-1.76-4.5-1.83 4.21zM137.68 34.72l-.07 3.49a2 2 0 01-2.27 2q1.09 1.77 2.16 3.54l-3.31-.53c-.71-1.17-1.43-2.33-2.15-3.5-1.31-.19-2.61-.36-3.92-.53v3.17l-3-.37.15-11.42q5 .59 10 1.37a2.91 2.91 0 012.41 2.78zm-2.84.1a.29.29 0 00-.24-.28q-3.19-.49-6.39-.9v2.85c2.13.28 4.25.58 6.38.9a.2.2 0 00.25-.19zM155.5 42.29l-.07 2.71a1.92 1.92 0 01-2.51 1.82q-3.76-.87-7.56-1.6a3 3 0 01-2.42-2.86v-1.14l2.81.54v.55a.32.32 0 00.24.29c2.14.42 4.28.88 6.42 1.36a.2.2 0 00.25-.19v-1.24a.32.32 0 00-.24-.29q-3.75-.85-7.51-1.59a2.38 2.38 0 01-1.91-2.26l.06-2.7a2 2 0 012.53-1.91q3.81.77 7.6 1.63a3.13 3.13 0 012.4 3v1.1l-2.79-.65v-.55a.3.3 0 00-.24-.29q-3.21-.73-6.43-1.38a.19.19 0 00-.25.19v1.25a.3.3 0 00.24.29q3.76.77 7.52 1.63a2.48 2.48 0 011.86 2.29zM139.25 32.7l2.65.48c-.28 1.21-.51 2.37-.84 3.49-.06.21-.48.35-.76.36a6.78 6.78 0 01-1.35-.21c.1-1.4.2-2.72.3-4.12z"/></svg>